<svg width="1200" height="1200" viewBox="0 0 1200 1200" fill="none" xmlns="http://www.w3.org/2000/svg">
<mask id="mask0_409_3640" style="mask-type:alpha" maskUnits="userSpaceOnUse" x="0" y="0" width="1197" height="1197">
<circle cx="598.033" cy="598.033" r="598.033" fill="#D9D9D9"/>
</mask>
<g mask="url(#mask0_409_3640)">
<path d="M925.883 1091.76C923.138 1093.73 920.001 1095.69 917.256 1097.65C914.118 1099.61 911.373 1101.57 908.236 1103.14C905.491 1104.71 903.138 1106.27 900.393 1107.84C900.001 1108.24 899.609 1108.24 899.216 1108.63C890.197 1114.12 880.785 1119.22 871.373 1123.92C868.628 1125.49 865.491 1127.06 862.746 1128.24C862.746 1128.24 862.354 1128.63 861.962 1128.63C858.824 1130.2 855.687 1131.76 852.55 1133.33C846.275 1136.47 839.609 1139.22 833.334 1141.96C830.197 1143.53 826.667 1144.71 823.53 1145.88C820.393 1147.06 816.864 1148.63 813.726 1149.8C810.589 1150.98 807.06 1152.55 803.922 1153.73C803.922 1153.73 803.922 1153.73 803.53 1153.73C800.393 1154.9 796.864 1156.08 793.726 1157.25C786.667 1159.61 779.216 1161.96 772.158 1164.31C769.805 1165.1 767.06 1165.88 764.707 1166.67C757.256 1169.02 749.805 1170.98 742.354 1172.55C739.609 1173.33 736.864 1173.73 733.726 1174.51C726.667 1176.08 719.216 1177.65 712.158 1179.22C710.589 1179.61 709.413 1179.61 707.844 1180C705.491 1180.39 702.746 1180.78 700.393 1181.18C696.864 1181.57 693.726 1182.35 690.197 1182.74C688.628 1183.14 687.06 1183.14 685.491 1183.53C683.53 1183.92 681.177 1184.31 678.824 1184.31C672.55 1185.1 665.883 1185.88 659.609 1186.67C657.648 1187.06 655.295 1187.06 653.334 1187.45H652.942C650.197 1187.84 647.452 1187.84 644.707 1188.24C641.962 1188.63 639.217 1188.63 636.471 1188.63C634.903 1188.63 632.942 1189.02 631.373 1189.02C628.236 1189.02 625.491 1189.41 622.746 1189.41C618.824 1189.41 615.295 1189.8 611.373 1189.8C607.452 1189.8 603.922 1189.8 600.001 1189.8C597.256 1189.8 594.511 1189.8 591.766 1189.8C426.275 1187.45 277.648 1117.25 171.373 1005.88C171.373 1005.88 171.373 1005.49 170.981 1005.49C159.216 994.902 169.413 938.431 216.864 902.745C276.471 857.647 419.217 829.412 419.217 829.412C419.217 829.412 474.511 820.392 679.609 863.137C799.609 888.235 890.981 924.706 941.962 1023.53C952.55 1043.92 963.138 1075.29 925.883 1091.76Z" fill="white"/>
<path d="M680.785 858.823C756.079 874.118 836.471 890.588 898.432 940.392C919.216 957.255 932.942 981.961 944.315 1005.88C949.805 1017.65 955.295 1029.8 959.609 1042.75C961.962 1051.37 965.491 1061.18 963.53 1071.37C963.138 1074.12 960.785 1077.65 958.824 1079.61C949.805 1088.63 940.001 1094.12 930.197 1101.18C872.55 1141.18 806.275 1169.41 737.648 1184.31C584.707 1217.65 419.216 1191.76 284.707 1111.37C240.001 1084.31 198.824 1051.37 163.53 1012.55C159.609 1007.84 159.609 1000 159.609 994.902C160.001 983.137 163.138 971.765 167.06 961.176C176.471 936.863 188.628 912.549 209.413 895.686C224.315 885.49 240.393 876.863 256.864 869.804C308.628 847.843 363.138 832.549 419.216 826.274C423.922 825.882 424.707 832.549 420.001 833.333C366.275 844.314 312.942 860.784 263.138 883.137C245.099 892.157 225.883 900 211.373 914.118C197.648 929.02 187.844 947.451 180.001 966.274C174.903 977.647 171.373 995.686 172.942 1004.71C197.648 1034.12 226.667 1060 258.04 1082.35C429.805 1202.35 690.589 1210.2 873.334 1110.2C889.805 1101.18 905.883 1090.98 921.177 1080.39C928.628 1075.29 936.471 1070.98 942.354 1065.1C942.746 1064.71 942.354 1065.1 942.354 1065.49C942.354 1065.88 941.962 1066.27 941.962 1066.27C942.354 1061.57 940.785 1055.29 938.824 1049.02C931.765 1026.27 920.393 1002.35 908.236 981.569C889.02 950.588 856.471 930.98 823.53 915.294C800.785 904.706 776.864 896.471 752.55 888.627C728.236 880.784 703.53 874.118 678.824 868.235C672.55 866.667 674.511 857.647 680.785 858.823Z" fill="black"/>
<path d="M925.883 1091.76C923.138 1093.73 920.001 1095.69 917.256 1097.65C914.118 1099.61 911.373 1101.57 908.236 1103.14C905.491 1104.71 903.138 1106.27 900.393 1107.84C900.001 1108.24 899.609 1108.24 899.216 1108.63C890.197 1114.12 880.785 1119.22 871.373 1123.92C868.628 1125.49 865.491 1127.06 862.746 1128.24C862.746 1128.24 862.354 1128.63 861.962 1128.63C858.824 1130.2 855.687 1131.76 852.55 1133.33C846.275 1136.47 839.609 1139.22 833.334 1141.96C830.197 1143.53 826.667 1144.71 823.53 1145.88C820.393 1147.06 816.864 1148.63 813.726 1149.8C810.589 1150.98 807.06 1152.55 803.922 1153.73C803.922 1153.73 803.922 1153.73 803.53 1153.73C800.393 1154.9 796.864 1156.08 793.726 1157.25C786.667 1159.61 779.216 1161.96 772.158 1164.31C769.805 1165.1 767.06 1165.88 764.707 1166.67C757.256 1169.02 749.805 1170.98 742.354 1172.55C739.609 1173.33 736.864 1173.73 733.726 1174.51C726.667 1176.08 719.216 1177.65 712.158 1179.22C710.589 1179.61 709.413 1179.61 707.844 1180C705.491 1180.39 702.746 1180.78 700.393 1181.18C696.864 1181.57 693.726 1182.35 690.197 1182.74C688.628 1183.14 687.06 1183.14 685.491 1183.53C683.53 1183.92 681.177 1184.31 678.824 1184.31C672.55 1185.1 665.883 1185.88 659.609 1186.67C657.648 1187.06 655.295 1187.06 653.334 1187.45H652.942C650.197 1187.84 647.452 1187.84 644.707 1188.24C641.962 1188.63 639.217 1188.63 636.471 1188.63C634.903 1188.63 632.942 1189.02 631.373 1189.02C628.236 1189.02 625.491 1189.41 622.746 1189.41C618.824 1189.41 615.295 1189.8 611.373 1189.8C607.452 1189.8 603.922 1189.8 600.001 1189.8C597.256 1189.8 594.511 1189.8 591.765 1189.8C426.275 1187.45 277.648 1117.25 171.373 1005.88C171.373 1005.88 171.373 1005.49 170.981 1005.49C159.216 994.902 169.413 938.431 216.864 902.745C276.471 857.647 419.217 829.412 419.217 829.412C419.217 829.412 474.511 820.392 679.609 863.137C799.609 888.235 890.981 924.706 941.962 1023.53C952.55 1043.92 963.138 1075.29 925.883 1091.76Z" fill="white"/>
<path d="M680.785 858.823C756.079 874.118 836.471 890.588 898.432 940.392C919.217 957.255 932.942 981.961 944.315 1005.88C949.805 1017.65 955.295 1029.8 959.609 1042.75C961.962 1051.37 965.491 1061.18 963.53 1071.37C963.138 1074.12 960.785 1077.65 958.824 1079.61C949.805 1088.63 940.001 1094.12 930.197 1101.18C872.55 1141.18 806.275 1169.41 737.648 1184.31C584.707 1217.65 419.216 1191.76 284.707 1111.37C240.001 1084.31 198.824 1051.37 163.53 1012.55C159.609 1007.84 159.609 1000 159.609 994.902C160.001 983.137 163.138 971.765 167.06 961.176C176.471 936.863 188.628 912.549 209.413 895.686C224.315 885.49 240.393 876.863 256.864 869.804C308.628 847.843 363.138 832.549 419.216 826.274C423.922 825.882 424.707 832.549 420.001 833.333C366.275 844.314 312.942 860.784 263.138 883.137C245.099 892.157 225.883 900 211.373 914.118C197.648 929.02 187.844 947.451 180.001 966.274C174.903 977.647 171.373 995.686 172.942 1004.71C197.648 1034.12 226.667 1060 258.04 1082.35C429.805 1202.35 690.589 1210.2 873.334 1110.2C889.805 1101.18 905.883 1090.98 921.177 1080.39C928.628 1075.29 936.471 1070.98 942.354 1065.1C942.746 1064.71 942.354 1065.1 942.354 1065.49C942.354 1065.88 941.962 1066.27 941.962 1066.27C942.354 1061.57 940.785 1055.29 938.824 1049.02C931.765 1026.27 920.393 1002.35 908.236 981.569C889.02 950.588 856.471 930.98 823.53 915.294C800.785 904.706 776.864 896.471 752.55 888.627C728.236 880.784 703.53 874.118 678.824 868.235C672.55 866.667 674.511 857.647 680.785 858.823Z" fill="black"/>
<path d="M1056.08 1334.9H64.3162C64.3162 1334.9 122.748 1211.77 148.63 1071.37C166.669 974.118 180.002 917.256 230.591 885.883C266.277 863.922 342.748 841.177 375.689 829.413C398.042 821.569 402.748 828.236 418.826 823.922C418.826 825.883 419.218 827.452 419.218 829.413C419.218 829.413 461.571 955.295 571.767 1000C661.571 1036.47 714.904 1012.16 723.14 971.765C728.238 945.883 712.159 903.53 703.924 889.805C699.218 885.883 696.081 880.001 694.512 874.118L691.375 861.177C698.826 859.609 705.885 857.648 712.944 855.295C715.297 854.511 717.257 853.726 719.61 852.942C764.708 864.707 861.179 902.746 903.924 941.962C920.787 957.648 960.787 1036.08 986.669 1149.8C1016.47 1278.82 1056.08 1334.9 1056.08 1334.9Z" fill="black"/>
<path d="M1065.1 1339.61C769.805 1341.57 355.295 1346.27 64.7068 1345.1C57.648 1345.1 52.55 1337.25 55.6872 1330.98C90.5892 1254.12 118.04 1172.16 135.687 1089.41C137.648 1078.82 141.962 1058.04 143.923 1047.45C152.942 1004.31 160.001 961.568 183.138 921.961C190.981 909.019 201.177 896.863 213.334 887.059C225.099 877.647 238.824 870.588 252.55 864.314C296.472 845.49 340.785 830.588 385.883 816.863C396.472 814.51 407.06 817.255 417.256 814.902C423.138 813.333 429.413 817.647 429.805 823.921L430.197 829.412L419.609 819.608C423.923 819.608 427.844 822.353 429.021 826.274C432.158 835.294 436.472 844.706 440.785 853.725C454.119 880.784 470.589 906.274 490.589 928.627C516.864 958.431 549.805 981.961 587.452 995.294C625.491 1009.41 693.334 1021.57 712.158 976.078C715.295 967.843 714.903 959.216 713.726 950.196C710.981 931.765 704.707 912.157 695.687 895.686L697.648 898.039C691.373 889.804 689.021 880 689.805 870.588V862.353V861.176C689.805 860.392 690.589 859.608 691.374 859.608C696.079 858.039 700.393 856.078 705.099 854.51C709.413 852.549 713.726 850.588 718.04 848.235C719.217 847.451 720.393 847.843 721.57 848.235C747.452 854.902 772.158 863.921 796.864 874.117C833.726 889.412 870.197 906.667 901.962 931.372C913.334 939.608 921.57 951.765 928.236 963.921C941.57 987.451 952.158 1011.76 961.57 1036.47C978.04 1079.61 990.197 1124.31 1000.79 1169.41C1014.12 1219.22 1030.2 1268.63 1054.9 1314.12C1057.65 1318.82 1060.39 1323.53 1063.14 1328.24L1063.92 1329.02V1329.41C1066.28 1331.37 1066.67 1336.86 1065.1 1339.61ZM1047.06 1330.2C1045.1 1332.16 1045.49 1337.65 1047.06 1339.61V1339.22L1046.28 1338.04C1018.82 1292.94 1001.57 1242.35 987.452 1191.76C980.393 1167.06 975.295 1140.39 968.236 1115.29C954.511 1065.88 937.648 1016.08 912.942 970.98C908.628 963.529 903.923 955.294 898.04 949.412C886.668 938.823 873.334 930.196 860.001 921.961C838.04 909.019 814.511 897.647 790.589 887.843C766.668 878.039 742.354 869.019 717.648 862.353L723.53 861.961C712.942 862.745 702.746 863.137 692.55 862.745L694.119 860.392C696.472 864.314 699.217 870.98 701.57 874.51C704.315 878.039 707.452 880.784 710.981 882.353C711.766 883.137 712.55 883.921 712.942 884.706C727.06 911.765 741.177 952.157 730.981 982.353C707.452 1041.57 628.628 1032.16 580.393 1013.73C540.001 1000 503.53 973.725 475.295 941.568C447.06 909.412 424.707 872.549 409.805 832.549L419.217 839.216C413.726 839.216 409.413 835.294 409.021 829.804L408.628 824.706L421.177 833.725C417.256 834.902 412.55 835.294 408.236 835.686C397.256 835.294 389.805 834.902 379.609 838.823C366.275 843.529 352.55 848.235 338.824 852.549C311.766 861.568 285.099 870.98 259.609 882.353C201.57 905.49 184.707 951.765 171.373 1009.41C165.099 1036.08 160.001 1066.27 154.511 1093.33C136.472 1178.04 109.021 1260 73.3343 1339.22L64.3147 1324.71C348.628 1324.71 758.824 1327.45 1047.06 1330.2Z" fill="black"/>
<path d="M538.04 1041.18C402.746 980.392 350.197 871.765 360.393 842.353C360.393 842.353 360.393 841.961 360.785 841.569C367.844 827.059 379.217 815.294 393.334 807.059C401.177 802.353 409.805 798.039 416.864 795.686C523.922 769.02 665.883 814.118 713.726 855.294C730.981 876.079 748.628 896.863 755.295 951.765C764.707 1030.98 678.04 1104.31 538.04 1041.18Z" fill="white"/>
<path d="M536.079 1045.49C468.236 1014.9 404.707 967.059 368.628 900.784C361.569 887.059 355.295 872.941 353.334 856.863C352.942 851.373 352.55 844.706 355.295 839.216C363.53 822.745 378.432 809.804 394.903 801.961C407.452 795.294 421.177 790.588 434.903 786.274C454.511 782.745 474.118 781.569 494.118 781.961C559.609 783.922 624.707 801.176 682.746 831.373C687.06 833.725 691.373 836.078 695.687 838.823C697.256 839.608 698.432 840.784 700.393 840.392C702.354 840 703.922 840.784 705.491 841.569C710.197 844.314 714.118 847.843 718.432 851.765C729.02 864.706 739.609 878.431 746.667 894.118C753.726 909.804 757.648 926.667 760.001 943.137C766.275 976.863 754.903 1014.51 728.628 1037.65C675.295 1085.49 595.295 1072.55 536.079 1045.49ZM539.609 1037.25C583.53 1056.47 633.726 1068.63 680.393 1053.73C718.04 1042.35 749.02 1008.24 750.197 968.235C750.589 944.706 745.099 920 735.687 898.431C730.589 885.098 716.471 868.235 709.413 859.608C705.099 856.078 700.393 853.333 696.471 849.804C696.079 849.02 695.687 848.235 695.295 847.451C694.511 845.49 692.942 845.098 691.766 843.922C687.844 841.569 683.53 839.216 679.217 836.863C645.099 819.216 607.452 809.02 569.805 801.569C525.883 793.333 480.785 790.98 436.471 797.255C430.197 798.039 423.53 797.255 417.256 798.823C412.55 800.784 403.922 804.706 398.432 808.627C384.315 816.863 373.726 829.02 366.275 843.529L365.883 843.922C365.883 844.314 365.491 845.098 365.491 845.49C363.53 861.961 371.373 878.824 378.824 894.118C385.491 906.667 393.334 918.824 402.354 930.588C438.432 977.255 486.668 1013.33 539.609 1037.25Z" fill="black"/>
<path d="M717.644 963.138C709.409 1003.53 656.076 1027.84 566.272 991.373C472.939 953.726 432.546 863.922 422.35 837.255C477.644 733.726 439.213 661.961 439.213 661.961C566.664 650.981 678.037 800 678.037 800L695.292 873.726C696.86 880 699.997 885.491 704.703 889.412C712.939 903.922 722.743 937.255 717.644 963.138Z" fill="white"/>
<path d="M420.391 838.432C427.842 827.059 432.548 813.726 435.685 800.785C441.568 773.726 443.529 746.275 443.921 718.824V708.628C442.744 698.432 439.215 687.844 435.293 678.432C430.195 665.883 448.627 658.04 454.509 670.589C455.293 672.157 455.293 674.903 455.293 676.471C456.47 729.804 458.823 798.432 425.097 842.746C422.744 845.099 418.038 841.569 420.391 838.432Z" fill="black"/>
<path d="M682.351 799.216C688.233 802.746 690.194 807.452 690.978 812.158C693.331 821.569 692.547 831.766 694.9 841.569C696.861 850.981 702.743 860.001 704.312 869.805C706.272 880.001 712.155 901.569 714.508 912.158C715.292 914.511 713.723 917.256 710.978 917.648C709.41 918.04 708.233 917.648 707.057 916.864C701.959 912.55 699.606 908.236 696.469 902.746C691.371 893.334 687.841 884.707 684.704 874.118C681.959 864.707 683.135 854.511 680.782 844.707C678.821 835.295 673.331 826.275 671.37 816.471C670.194 811.765 669.802 806.667 673.331 800.785C675.684 798.432 679.606 797.648 682.351 799.216Z" fill="black"/>
<path d="M710.587 902.745C635.685 898.824 574.509 875.295 514.901 769.02C565.097 813.334 624.313 830.196 686.666 838.04L694.901 874.118C696.47 880.393 705.881 898.824 710.587 902.745Z" fill="black"/>
<path d="M707.452 888.236C720.785 913.334 728.628 944.706 720.393 972.549C714.118 992.157 696.079 1006.67 676.471 1012.16C630.981 1024.31 578.432 1005.1 538.04 983.53C488.236 955.687 451.373 909.02 427.844 858.04C426.275 854.118 431.765 850.981 434.118 854.902C442.354 871.373 451.765 887.451 462.354 901.961C472.942 916.863 485.099 930.588 498.824 942.745C538.824 978.824 592.942 1001.18 647.06 1001.18C702.746 999.608 723.922 970.196 710.981 916.079C709.02 907.451 705.883 898.432 701.569 890.981C699.216 887.843 705.099 884.314 707.452 888.236Z" fill="black"/>
<path d="M859.215 417.255C866.274 450.196 869.803 476.863 850.587 564.706C831.764 652.157 877.646 670.196 769.019 810.196C724.705 867.451 617.254 851.373 530.195 792.157C500.783 772.157 488.234 720.785 466.274 684.314C449.019 655.687 441.176 685.49 418.431 660.785C387.45 627.059 350.195 559.216 368.627 439.216C398.431 244.706 552.548 221.961 666.666 243.53C781.568 265.49 840.391 330.588 859.215 417.255Z" fill="white"/>
<path d="M438.038 695.686C429.019 680.392 417.254 667.059 406.274 652.941C395.685 638.432 387.058 622.353 379.999 605.883C333.333 491.373 351.372 330.196 465.882 262.745C513.333 235.294 570.587 228.628 623.921 232.941C738.038 241.177 842.744 293.726 867.45 414.51C880.783 467.843 862.744 522.745 852.548 574.902C847.842 600.785 851.764 627.451 851.372 654.118C850.98 681.177 843.529 708.236 833.332 733.334C827.058 750.588 816.078 765.883 804.705 780C785.882 802.745 767.058 825.883 743.136 843.53C737.646 847.451 727.842 849.412 721.176 850.196C702.744 852.941 684.705 853.726 666.274 852.549C594.117 849.412 516.862 814.51 487.842 744.706C486.666 741.961 490.587 740 492.156 742.353C529.803 801.961 598.823 831.373 667.45 835.294C688.627 836.471 710.195 836.079 730.98 831.765C741.176 826.667 750.195 817.647 758.823 809.412C779.999 788.236 801.568 765.49 816.862 739.608C835.293 704.706 845.489 666.667 842.352 627.059C841.568 609.412 841.176 590.981 844.705 573.334C847.842 555.686 851.764 538.824 854.117 520.785C856.47 503.53 857.646 485.883 857.646 468.628C855.685 418.039 839.215 365.883 807.058 326.667C736.078 238.432 568.234 215.294 473.725 275.686C414.117 312.549 386.274 381.569 377.254 448.628C363.529 529.02 367.45 608.236 431.372 666.667L450.195 686.275C457.646 694.902 444.313 705.098 438.038 695.686Z" fill="black"/>
<path d="M484.311 570.98C484.311 570.98 472.155 512.157 414.9 519.215C365.488 525.49 348.233 643.921 460.39 676.863" fill="white"/>
<path d="M455.293 625.491C446.274 620.393 439.999 611.765 439.607 601.177C439.999 593.334 441.176 584.314 439.215 576.471C438.038 569.02 430.195 567.059 424.313 567.451C418.038 568.628 414.117 576.471 412.94 582.746C412.94 583.138 412.548 584.314 412.548 584.706C412.156 586.667 409.019 586.667 408.235 584.706C403.137 569.412 414.509 552.549 430.98 554.51C454.117 556.079 457.254 580.393 452.94 598.824C450.587 606.667 453.725 613.726 458.038 620.393L458.823 621.569C460.784 623.922 457.646 627.059 455.293 625.491Z" fill="black"/>
<path d="M769.018 529.412C774.9 557.255 785.881 583.137 799.606 607.451C811.763 637.255 780.39 665.49 752.547 664.313C749.41 664.313 749.018 660 751.763 659.215C769.41 653.725 785.488 641.961 788.234 623.921C789.41 618.431 787.841 613.725 785.096 609.019C772.155 584.706 764.312 556.862 766.273 529.412C766.273 527.451 769.018 527.451 769.018 529.412Z" fill="black"/>
<path d="M482.352 571.373C473.333 548.235 453.725 526.275 427.45 526.667C425.097 526.275 421.176 527.059 418.823 527.059C412.156 527.451 406.666 529.804 401.568 534.51C376.47 559.608 380.784 603.922 401.176 631.765C408.235 641.569 417.254 650.196 427.45 657.255C437.646 664.314 449.019 669.804 461.176 674.51C463.921 675.294 462.744 679.608 459.999 679.216C433.725 673.725 408.627 660.784 391.372 639.216C364.705 607.059 359.215 553.333 390.98 521.961C398.039 515.686 407.842 510.98 417.646 510.98C420.784 510.98 425.49 510.196 428.627 510.98C445.097 511.765 460.784 520 470.98 532.941C479.999 543.922 485.097 557.255 486.666 570.588C486.666 572.941 483.137 573.725 482.352 571.373Z" fill="black"/>
<path d="M739.216 703.529C714.118 727.451 666.667 708.235 654.118 679.216C652.549 675.686 656.471 672.549 659.608 674.117C666.275 677.647 672.157 681.176 678.432 683.921C696.471 692.157 715.294 698.823 735.294 696.863C739.216 696.078 741.961 700.784 739.216 703.529Z" fill="black"/>
<path d="M622.746 569.412C613.334 569.02 606.275 561.177 607.06 551.765L607.452 540.785C607.844 531.373 615.687 524.314 625.099 525.099C634.511 525.491 641.57 533.334 640.785 542.746L640.393 553.726C640.001 562.746 632.158 569.804 622.746 569.412Z" fill="black"/>
<path d="M787.843 575.295C779.215 574.903 772.549 567.452 772.941 558.824L773.333 548.628C773.725 540.001 781.176 533.334 789.803 533.726C798.431 534.119 805.098 541.57 804.705 550.197L804.313 560.393C803.921 569.02 796.47 575.687 787.843 575.295Z" fill="black"/>
<path d="M658.04 548.236C645.099 539.608 630.981 533.726 615.295 536.863C610.197 537.648 605.099 539.216 601.962 542.746C600.785 544.314 598.04 543.922 598.04 541.569C598.432 533.726 605.099 528.628 611.373 525.491C623.53 519.216 640.393 520.393 651.373 528.628C655.295 530.981 668.628 545.491 661.569 548.628C660.001 549.412 659.217 549.02 658.04 548.236Z" fill="black"/>
<path d="M770.197 550.197C770.197 533.726 790.589 527.844 803.138 533.726C810.197 536.863 815.295 543.138 817.256 550.589C818.04 552.942 814.511 554.903 812.942 552.942C806.275 545.099 794.903 541.177 785.883 545.883C783.138 547.452 782.746 548.628 781.962 550.197C781.962 558.04 770.589 557.648 770.197 550.197Z" fill="black"/>
<path d="M676.864 483.53C685.099 486.275 693.334 478.824 691.766 469.804C690.981 465.098 689.02 460.392 685.099 456.863C673.334 446.275 624.707 436.863 595.295 450.589C569.413 463.138 639.217 470.981 676.864 483.53Z" fill="black"/>
<path d="M794.12 489.804C787.453 492.157 780.395 485.098 781.571 476.863C781.963 472.549 783.532 468.236 786.669 465.098C796.081 455.687 828.238 448.236 848.63 462.745C866.277 474.902 824.708 478.432 794.12 489.804Z" fill="black"/>
<path d="M871.372 237.256C777.254 210.589 767.058 259.216 672.941 207.452C578.823 155.295 408.235 190.197 376.47 311.373C376.47 311.373 323.921 343.53 320.392 454.51C318.039 529.02 356.862 597.256 382.352 633.726C399.607 661.961 417.647 682.746 428.235 701.569C445.098 731.765 453.333 764.706 453.333 764.706C457.254 727.059 466.274 692.55 460.784 677.255L447.843 672.942C349.803 635.295 367.451 525.883 415.294 519.608C465.49 513.334 481.176 558.04 483.921 569.02C490.588 560.785 488.235 536.079 486.666 506.667C565.098 545.491 643.529 457.255 669.803 389.02C702.353 304.706 774.117 370.589 774.117 370.589C774.117 370.589 845.098 503.53 920.392 444.314C987.058 390.981 973.725 265.883 871.372 237.256Z" fill="black"/>
</g>
</svg>
