<svg width="1200" height="1200" viewBox="0 0 1200 1200" fill="none" xmlns="http://www.w3.org/2000/svg">
<mask id="mask0_409_3640" style="mask-type:alpha" maskUnits="userSpaceOnUse" x="0" y="0" width="1197" height="1197">
<circle cx="598.033" cy="598.033" r="598.033" fill="#D9D9D9"/>
</mask>
<g mask="url(#mask0_409_3640)">
<path d="M925.883 1091.76C923.138 1093.73 920.001 1095.69 917.256 1097.65C914.118 1099.61 911.373 1101.57 908.236 1103.14C905.491 1104.71 903.138 1106.27 900.393 1107.84C900.001 1108.24 899.609 1108.24 899.216 1108.63C890.197 1114.12 880.785 1119.22 871.373 1123.92C868.628 1125.49 865.491 1127.06 862.746 1128.24C862.746 1128.24 862.354 1128.63 861.962 1128.63C858.824 1130.2 855.687 1131.76 852.55 1133.33C846.275 1136.47 839.609 1139.22 833.334 1141.96C830.197 1143.53 826.667 1144.71 823.53 1145.88C820.393 1147.06 816.864 1148.63 813.726 1149.8C810.589 1150.98 807.06 1152.55 803.922 1153.73C803.922 1153.73 803.922 1153.73 803.53 1153.73C800.393 1154.9 796.864 1156.08 793.726 1157.25C786.667 1159.61 779.216 1161.96 772.158 1164.31C769.805 1165.1 767.06 1165.88 764.707 1166.67C757.256 1169.02 749.805 1170.98 742.354 1172.55C739.609 1173.33 736.864 1173.73 733.726 1174.51C726.667 1176.08 719.216 1177.65 712.158 1179.22C710.589 1179.61 709.413 1179.61 707.844 1180C705.491 1180.39 702.746 1180.78 700.393 1181.18C696.864 1181.57 693.726 1182.35 690.197 1182.74C688.628 1183.14 687.06 1183.14 685.491 1183.53C683.53 1183.92 681.177 1184.31 678.824 1184.31C672.55 1185.1 665.883 1185.88 659.609 1186.67C657.648 1187.06 655.295 1187.06 653.334 1187.45H652.942C650.197 1187.84 647.452 1187.84 644.707 1188.24C641.962 1188.63 639.217 1188.63 636.471 1188.63C634.903 1188.63 632.942 1189.02 631.373 1189.02C628.236 1189.02 625.491 1189.41 622.746 1189.41C618.824 1189.41 615.295 1189.8 611.373 1189.8C607.452 1189.8 603.922 1189.8 600.001 1189.8C597.256 1189.8 594.511 1189.8 591.766 1189.8C426.275 1187.45 277.648 1117.25 171.373 1005.88C171.373 1005.88 171.373 1005.49 170.981 1005.49C159.216 994.902 169.413 938.431 216.864 902.745C276.471 857.647 419.217 829.412 419.217 829.412C419.217 829.412 474.511 820.392 679.609 863.137C799.609 888.235 890.981 924.706 941.962 1023.53C952.55 1043.92 963.138 1075.29 925.883 1091.76Z" fill="white"/>
<path d="M680.785 858.823C756.079 874.118 836.471 890.588 898.432 940.392C919.216 957.255 932.942 981.961 944.315 1005.88C949.805 1017.65 955.295 1029.8 959.609 1042.75C961.962 1051.37 965.491 1061.18 963.53 1071.37C963.138 1074.12 960.785 1077.65 958.824 1079.61C949.805 1088.63 940.001 1094.12 930.197 1101.18C872.55 1141.18 806.275 1169.41 737.648 1184.31C584.707 1217.65 419.216 1191.76 284.707 1111.37C240.001 1084.31 198.824 1051.37 163.53 1012.55C159.609 1007.84 159.609 1000 159.609 994.902C160.001 983.137 163.138 971.765 167.06 961.176C176.471 936.863 188.628 912.549 209.413 895.686C224.315 885.49 240.393 876.863 256.864 869.804C308.628 847.843 363.138 832.549 419.216 826.274C423.922 825.882 424.707 832.549 420.001 833.333C366.275 844.314 312.942 860.784 263.138 883.137C245.099 892.157 225.883 900 211.373 914.118C197.648 929.02 187.844 947.451 180.001 966.274C174.903 977.647 171.373 995.686 172.942 1004.71C197.648 1034.12 226.667 1060 258.04 1082.35C429.805 1202.35 690.589 1210.2 873.334 1110.2C889.805 1101.18 905.883 1090.98 921.177 1080.39C928.628 1075.29 936.471 1070.98 942.354 1065.1C942.746 1064.71 942.354 1065.1 942.354 1065.49C942.354 1065.88 941.962 1066.27 941.962 1066.27C942.354 1061.57 940.785 1055.29 938.824 1049.02C931.765 1026.27 920.393 1002.35 908.236 981.569C889.02 950.588 856.471 930.98 823.53 915.294C800.785 904.706 776.864 896.471 752.55 888.627C728.236 880.784 703.53 874.118 678.824 868.235C672.55 866.667 674.511 857.647 680.785 858.823Z" fill="black"/>
<path d="M925.883 1091.76C923.138 1093.73 920.001 1095.69 917.256 1097.65C914.118 1099.61 911.373 1101.57 908.236 1103.14C905.491 1104.71 903.138 1106.27 900.393 1107.84C900.001 1108.24 899.609 1108.24 899.216 1108.63C890.197 1114.12 880.785 1119.22 871.373 1123.92C868.628 1125.49 865.491 1127.06 862.746 1128.24C862.746 1128.24 862.354 1128.63 861.962 1128.63C858.824 1130.2 855.687 1131.76 852.55 1133.33C846.275 1136.47 839.609 1139.22 833.334 1141.96C830.197 1143.53 826.667 1144.71 823.53 1145.88C820.393 1147.06 816.864 1148.63 813.726 1149.8C810.589 1150.98 807.06 1152.55 803.922 1153.73C803.922 1153.73 803.922 1153.73 803.53 1153.73C800.393 1154.9 796.864 1156.08 793.726 1157.25C786.667 1159.61 779.216 1161.96 772.158 1164.31C769.805 1165.1 767.06 1165.88 764.707 1166.67C757.256 1169.02 749.805 1170.98 742.354 1172.55C739.609 1173.33 736.864 1173.73 733.726 1174.51C726.667 1176.08 719.216 1177.65 712.158 1179.22C710.589 1179.61 709.413 1179.61 707.844 1180C705.491 1180.39 702.746 1180.78 700.393 1181.18C696.864 1181.57 693.726 1182.35 690.197 1182.74C688.628 1183.14 687.06 1183.14 685.491 1183.53C683.53 1183.92 681.177 1184.31 678.824 1184.31C672.55 1185.1 665.883 1185.88 659.609 1186.67C657.648 1187.06 655.295 1187.06 653.334 1187.45H652.942C650.197 1187.84 647.452 1187.84 644.707 1188.24C641.962 1188.63 639.217 1188.63 636.471 1188.63C634.903 1188.63 632.942 1189.02 631.373 1189.02C628.236 1189.02 625.491 1189.41 622.746 1189.41C618.824 1189.41 615.295 1189.8 611.373 1189.8C607.452 1189.8 603.922 1189.8 600.001 1189.8C597.256 1189.8 594.511 1189.8 591.765 1189.8C426.275 1187.45 277.648 1117.25 171.373 1005.88C171.373 1005.88 171.373 1005.49 170.981 1005.49C159.216 994.902 169.413 938.431 216.864 902.745C276.471 857.647 419.217 829.412 419.217 829.412C419.217 829.412 474.511 820.392 679.609 863.137C799.609 888.235 890.981 924.706 941.962 1023.53C952.55 1043.92 963.138 1075.29 925.883 1091.76Z" fill="white"/>
<path d="M680.785 858.823C756.079 874.118 836.471 890.588 898.432 940.392C919.217 957.255 932.942 981.961 944.315 1005.88C949.805 1017.65 955.295 1029.8 959.609 1042.75C961.962 1051.37 965.491 1061.18 963.53 1071.37C963.138 1074.12 960.785 1077.65 958.824 1079.61C949.805 1088.63 940.001 1094.12 930.197 1101.18C872.55 1141.18 806.275 1169.41 737.648 1184.31C584.707 1217.65 419.216 1191.76 284.707 1111.37C240.001 1084.31 198.824 1051.37 163.53 1012.55C159.609 1007.84 159.609 1000 159.609 994.902C160.001 983.137 163.138 971.765 167.06 961.176C176.471 936.863 188.628 912.549 209.413 895.686C224.315 885.49 240.393 876.863 256.864 869.804C308.628 847.843 363.138 832.549 419.216 826.274C423.922 825.882 424.707 832.549 420.001 833.333C366.275 844.314 312.942 860.784 263.138 883.137C245.099 892.157 225.883 900 211.373 914.118C197.648 929.02 187.844 947.451 180.001 966.274C174.903 977.647 171.373 995.686 172.942 1004.71C197.648 1034.12 226.667 1060 258.04 1082.35C429.805 1202.35 690.589 1210.2 873.334 1110.2C889.805 1101.18 905.883 1090.98 921.177 1080.39C928.628 1075.29 936.471 1070.98 942.354 1065.1C942.746 1064.71 942.354 1065.1 942.354 1065.49C942.354 1065.88 941.962 1066.27 941.962 1066.27C942.354 1061.57 940.785 1055.29 938.824 1049.02C931.765 1026.27 920.393 1002.35 908.236 981.569C889.02 950.588 856.471 930.98 823.53 915.294C800.785 904.706 776.864 896.471 752.55 888.627C728.236 880.784 703.53 874.118 678.824 868.235C672.55 866.667 674.511 857.647 680.785 858.823Z" fill="black"/>
<path d="M1062.75 1336.47L69.4128 1314.51C130.589 1110.2 164.707 930.196 210.589 902.745C297.648 850.588 376.08 842.353 422.746 838.039C434.511 867.059 479.217 962.353 572.158 1000C661.962 1036.47 715.295 1012.16 723.531 971.765C728.629 945.882 712.55 903.529 704.315 889.804C699.609 885.882 696.472 880 694.903 874.117L691.766 861.176C698.432 859.608 705.099 858.039 711.766 855.686C783.138 868.235 891.374 927.059 914.511 960C942.354 999.608 980.785 1098.82 979.217 1153.33C976.864 1241.96 1062.75 1336.47 1062.75 1336.47Z" fill="white"/>
<path d="M1072.16 1340.78C776.472 1336.47 360.785 1332.16 69.4128 1324.71C63.9226 1324.71 59.6089 1320 59.6089 1314.51C91.3736 1207.45 116.864 1099.61 150.981 992.941C155.295 979.608 160.001 966.666 165.491 953.333C174.903 932.549 184.315 909.412 203.923 895.294C215.295 888.627 227.452 881.96 239.217 876.078C296.079 847.843 359.217 833.333 421.962 828.235C426.668 827.843 430.589 830.588 432.158 834.51C461.962 905.882 516.079 972.157 591.766 996.862C629.021 1009.8 695.295 1020.78 712.942 974.51C718.825 952.157 710.197 928.627 702.354 907.451C700.393 903.137 698.432 898.823 696.472 895.294L698.432 897.647C690.981 891.372 686.276 880.784 684.707 871.372L682.746 863.529C681.57 858.039 685.099 852.549 690.589 851.372C697.256 849.804 703.53 848.235 709.805 846.274C764.707 850.196 877.256 905.882 916.08 945.098C938.825 971.372 951.766 1005.49 964.707 1037.25C974.119 1062.74 982.354 1089.02 987.06 1116.08C989.021 1126.27 990.197 1136.86 990.197 1147.45C989.805 1163.14 990.981 1179.22 995.295 1194.9C1008.24 1243.92 1036.86 1289.02 1069.41 1327.84L1070.2 1328.63L1070.59 1329.02C1070.59 1329.02 1070.2 1328.63 1071.77 1330.2C1072.94 1333.33 1073.33 1338.04 1072.16 1340.78ZM1053.73 1332.55C1053.33 1333.73 1052.55 1335.29 1052.94 1337.25C1052.94 1339.22 1053.73 1340.78 1054.51 1341.96C1055.69 1343.53 1055.3 1342.74 1055.3 1343.14L1054.9 1342.74C1052.16 1338.82 1046.67 1330.98 1043.92 1326.67C1011.77 1276.08 980.001 1220 978.825 1158.43C979.609 1118.04 967.06 1079.22 953.727 1041.96C944.315 1016.86 933.334 992.549 919.217 969.804C915.687 964.313 912.158 958.823 907.452 954.117C893.334 940.392 876.079 929.411 858.825 919.608C812.942 894.117 763.138 872.941 710.981 866.274L715.687 865.882C708.629 868.235 701.57 869.804 694.511 871.372L702.354 859.215C704.707 867.451 705.099 877.255 711.766 882.745C716.079 887.843 718.432 894.51 721.178 900C727.452 914.902 731.766 930.196 734.511 946.274C741.57 984.706 718.825 1016.47 681.178 1025.1C649.413 1032.55 616.079 1025.88 585.883 1016.08C504.707 990.196 445.883 919.215 414.119 842.353L424.315 848.627C362.354 847.843 300.785 860 244.707 886.666C232.55 892.549 220.001 899.215 208.628 906.274C192.55 919.215 184.707 939.608 176.472 958.039C150.981 1022.35 136.079 1089.8 119.217 1156.47C107.452 1203.53 91.7657 1270.2 80.001 1317.65L70.5893 1304.71C354.511 1310.59 765.099 1323.14 1053.73 1332.55Z" fill="black"/>
<path d="M243.531 1334.9C243.531 1334.9 238.433 1207.84 233.334 1184.31" stroke="black" stroke-width="5.1512" stroke-miterlimit="10" stroke-linecap="round" stroke-linejoin="round"/>
<path d="M938.431 1334.9C938.431 1334.9 926.666 1256.08 926.666 1242.35C926.666 1229.02 936.862 1185.1 938.431 1146.67" stroke="black" stroke-width="5.1512" stroke-miterlimit="10" stroke-linecap="round" stroke-linejoin="round"/>
<path d="M359.218 1236.08V1189.41L471.767 1235.29C471.375 1235.29 380.787 1237.65 359.218 1236.08Z" fill="white"/>
<path d="M627.452 1084.31L613.334 1376.86C613.334 1376.86 737.648 1461.57 737.648 1459.22C737.648 1456.86 796.472 1354.12 796.472 1354.12L704.707 1072.55C704.707 1072.55 692.942 1084.71 627.452 1084.31Z" fill="black"/>
<path d="M655.689 990.197C655.689 990.197 601.963 1040.78 594.905 1054.12C587.846 1067.45 625.101 1088.63 625.101 1088.63C625.101 1088.63 685.101 1101.18 712.159 1076.86C712.159 1076.86 727.454 1060 724.316 1043.92C721.571 1028.24 655.689 990.197 655.689 990.197Z" fill="black"/>
<path d="M406.666 800.392C407.058 800 407.451 799.608 407.843 799.216C412.156 794.118 418.431 790.98 425.49 790.196C458.431 786.274 461.96 789.804 469.019 800.784C503.137 854.117 547.451 956.078 656.078 990.588L551.372 1097.25C545.882 1104.31 536.078 1105.49 529.019 1100.39C495.294 1075.29 427.843 998.431 390.588 904.706C382.745 885.098 381.176 863.529 385.098 843.137C384.313 842.353 400 809.804 406.666 800.392Z" fill="white"/>
<path d="M403.921 798.431C409.803 792.941 416.47 788.235 424.705 787.059C435.686 785.882 447.058 783.529 458.431 785.882C470.196 789.412 474.509 802.353 481.176 811.372C510.588 859.608 541.176 908.627 586.274 942.745C602.352 955.686 620.784 965.49 639.607 973.333C646.666 976.078 654.117 978.431 661.176 981.569C667.058 984.314 668.235 992.941 663.137 996.863C634.117 1020.39 606.666 1045.88 579.607 1072.16C573.333 1078.43 558.823 1092.94 553.333 1098.43C547.058 1106.67 534.509 1107.84 526.666 1101.57L522.745 1098.43C509.411 1087.45 497.254 1074.9 485.49 1062.35C443.529 1016.08 408.235 963.529 384.705 905.49C376.47 884.706 374.509 861.176 379.607 839.608C385.49 825.098 393.333 810.588 403.921 798.431ZM411.764 803.921C403.137 816.078 395.686 830.98 389.411 844.706L389.803 843.529C387.451 856.471 387.451 869.804 390.196 882.353C392.549 895.686 398.431 907.451 403.529 919.608C414.117 944.706 427.451 968.627 441.568 991.765C455.686 1014.9 471.764 1037.25 489.803 1058.04C501.96 1072.16 514.902 1085.88 529.803 1097.25C530.98 1098.43 532.156 1098.82 533.725 1099.61C539.215 1101.96 545.882 1100 549.411 1095.29L562.352 1081.96L575.294 1068.24C601.176 1041.18 625.882 1012.94 649.019 983.529L652.941 999.608C624.705 990.98 598.039 975.686 574.902 956.47C529.019 919.216 499.215 867.451 470.98 817.255C467.451 811.765 463.921 804.706 460.392 799.608C458.823 797.255 457.647 796.47 455.294 795.686C446.274 793.333 435.686 794.902 426.274 796.078C420 796.863 414.902 799.608 411.764 803.921Z" fill="black"/>
<path d="M765.49 1058.43C763.137 1071.37 753.725 1083.53 738.039 1067.45L655.294 990.197C655.294 990.197 703.529 944.315 691.764 861.177C707.843 857.648 723.137 852.55 737.254 845.883C737.647 846.668 743.137 857.256 749.411 874.903C762.745 911.374 779.607 978.432 765.49 1058.43Z" fill="white"/>
<path d="M767.844 1058.82C765.491 1077.65 751.373 1085.49 736.864 1070.98L709.021 1045.1L681.177 1019.22L653.334 993.333C651.766 991.765 651.766 989.412 652.942 987.843C674.511 962.745 685.491 928.627 685.491 895.686C685.491 883.921 683.922 872.549 681.962 860.784C681.177 856.078 685.099 851.765 690.197 851.373C705.883 850.98 721.57 849.02 737.256 845.098C737.648 844.706 738.432 845.098 738.432 845.49C769.805 911.373 779.609 987.059 767.844 1058.82ZM763.53 1058.04C772.942 988.235 762.746 915.686 730.197 853.333L729.413 852.157C729.021 851.765 728.628 850.98 728.628 850.98L741.962 854.902C726.668 862.353 710.589 867.451 694.119 870.98L701.962 859.608C704.315 883.921 702.354 908.627 695.295 931.765C687.844 954.902 676.079 976.078 658.432 993.333V987.451C672.55 1000.39 700.393 1026.67 714.119 1039.61L741.57 1065.88C751.373 1076.08 760.785 1072.16 763.53 1058.04Z" fill="black"/>
<path d="M717.644 963.138C709.409 1003.53 656.076 1027.84 566.272 991.373C472.939 953.726 432.546 863.922 422.35 837.255C477.644 733.726 439.213 661.961 439.213 661.961C566.664 650.981 678.037 800 678.037 800L695.292 873.726C696.86 880 699.997 885.491 704.703 889.412C712.939 903.922 722.743 937.255 717.644 963.138Z" fill="white"/>
<path d="M420.391 838.432C427.842 827.059 432.548 813.726 435.685 800.785C441.568 773.726 443.529 746.275 443.921 718.824V708.628C442.744 698.432 439.215 687.844 435.293 678.432C430.195 665.883 448.627 658.04 454.509 670.589C455.293 672.157 455.293 674.903 455.293 676.471C456.47 729.804 458.823 798.432 425.097 842.746C422.744 845.099 418.038 841.569 420.391 838.432Z" fill="black"/>
<path d="M682.351 799.216C688.233 802.746 690.194 807.452 690.978 812.158C693.331 821.569 692.547 831.766 694.9 841.569C696.861 850.981 702.743 860.001 704.312 869.805C706.272 880.001 712.155 901.569 714.508 912.158C715.292 914.511 713.723 917.256 710.978 917.648C709.41 918.04 708.233 917.648 707.057 916.864C701.959 912.55 699.606 908.236 696.469 902.746C691.371 893.334 687.841 884.707 684.704 874.118C681.959 864.707 683.135 854.511 680.782 844.707C678.821 835.295 673.331 826.275 671.37 816.471C670.194 811.765 669.802 806.667 673.331 800.785C675.684 798.432 679.606 797.648 682.351 799.216Z" fill="black"/>
<path d="M710.587 902.745C635.685 898.824 574.509 875.295 514.901 769.02C565.097 813.334 624.313 830.196 686.666 838.04L694.901 874.118C696.47 880.393 705.881 898.824 710.587 902.745Z" fill="black"/>
<path d="M707.452 888.236C720.785 913.334 728.628 944.706 720.393 972.549C714.118 992.157 696.079 1006.67 676.471 1012.16C630.981 1024.31 578.432 1005.1 538.04 983.53C488.236 955.687 451.373 909.02 427.844 858.04C426.275 854.118 431.765 850.981 434.118 854.902C442.354 871.373 451.765 887.451 462.354 901.961C472.942 916.863 485.099 930.588 498.824 942.745C538.824 978.824 592.942 1001.18 647.06 1001.18C702.746 999.608 723.922 970.196 710.981 916.079C709.02 907.451 705.883 898.432 701.569 890.981C699.216 887.843 705.099 884.314 707.452 888.236Z" fill="black"/>
<path d="M859.215 417.255C866.274 450.196 869.803 476.863 850.587 564.706C831.764 652.157 877.646 670.196 769.019 810.196C724.705 867.451 617.254 851.373 530.195 792.157C500.783 772.157 488.234 720.785 466.274 684.314C449.019 655.687 441.176 685.49 418.431 660.785C387.45 627.059 350.195 559.216 368.627 439.216C398.431 244.706 552.548 221.961 666.666 243.53C781.568 265.49 840.391 330.588 859.215 417.255Z" fill="white"/>
<path d="M438.038 695.686C429.019 680.392 417.254 667.059 406.274 652.941C395.685 638.432 387.058 622.353 379.999 605.883C333.333 491.373 351.372 330.196 465.882 262.745C513.333 235.294 570.587 228.628 623.921 232.941C738.038 241.177 842.744 293.726 867.45 414.51C880.783 467.843 862.744 522.745 852.548 574.902C847.842 600.785 851.764 627.451 851.372 654.118C850.98 681.177 843.529 708.236 833.332 733.334C827.058 750.588 816.078 765.883 804.705 780C785.882 802.745 767.058 825.883 743.136 843.53C737.646 847.451 727.842 849.412 721.176 850.196C702.744 852.941 684.705 853.726 666.274 852.549C594.117 849.412 516.862 814.51 487.842 744.706C486.666 741.961 490.587 740 492.156 742.353C529.803 801.961 598.823 831.373 667.45 835.294C688.627 836.471 710.195 836.079 730.98 831.765C741.176 826.667 750.195 817.647 758.823 809.412C779.999 788.236 801.568 765.49 816.862 739.608C835.293 704.706 845.489 666.667 842.352 627.059C841.568 609.412 841.176 590.981 844.705 573.334C847.842 555.686 851.764 538.824 854.117 520.785C856.47 503.53 857.646 485.883 857.646 468.628C855.685 418.039 839.215 365.883 807.058 326.667C736.078 238.432 568.234 215.294 473.725 275.686C414.117 312.549 386.274 381.569 377.254 448.628C363.529 529.02 367.45 608.236 431.372 666.667L450.195 686.275C457.646 694.902 444.313 705.098 438.038 695.686Z" fill="black"/>
<path d="M484.311 570.98C484.311 570.98 472.155 512.157 414.9 519.215C365.488 525.49 348.233 643.921 460.39 676.863" fill="white"/>
<path d="M455.293 625.491C446.274 620.393 439.999 611.765 439.607 601.177C439.999 593.334 441.176 584.314 439.215 576.471C438.038 569.02 430.195 567.059 424.313 567.451C418.038 568.628 414.117 576.471 412.94 582.746C412.94 583.138 412.548 584.314 412.548 584.706C412.156 586.667 409.019 586.667 408.235 584.706C403.137 569.412 414.509 552.549 430.98 554.51C454.117 556.079 457.254 580.393 452.94 598.824C450.587 606.667 453.725 613.726 458.038 620.393L458.823 621.569C460.784 623.922 457.646 627.059 455.293 625.491Z" fill="black"/>
<path d="M769.018 529.412C774.9 557.255 785.881 583.137 799.606 607.451C811.763 637.255 780.39 665.49 752.547 664.313C749.41 664.313 749.018 660 751.763 659.215C769.41 653.725 785.488 641.961 788.234 623.921C789.41 618.431 787.841 613.725 785.096 609.019C772.155 584.706 764.312 556.862 766.273 529.412C766.273 527.451 769.018 527.451 769.018 529.412Z" fill="black"/>
<path d="M482.352 571.373C473.333 548.235 453.725 526.275 427.45 526.667C425.097 526.275 421.176 527.059 418.823 527.059C412.156 527.451 406.666 529.804 401.568 534.51C376.47 559.608 380.784 603.922 401.176 631.765C408.235 641.569 417.254 650.196 427.45 657.255C437.646 664.314 449.019 669.804 461.176 674.51C463.921 675.294 462.744 679.608 459.999 679.216C433.725 673.725 408.627 660.784 391.372 639.216C364.705 607.059 359.215 553.333 390.98 521.961C398.039 515.686 407.842 510.98 417.646 510.98C420.784 510.98 425.49 510.196 428.627 510.98C445.097 511.765 460.784 520 470.98 532.941C479.999 543.922 485.097 557.255 486.666 570.588C486.666 572.941 483.137 573.725 482.352 571.373Z" fill="black"/>
<path d="M730.194 701.96C730.586 708.235 725.881 719.215 717.253 727.058C672.939 700 652.939 714.117 652.939 714.117C637.253 690.196 640.783 657.647 678.822 682.353C705.096 699.607 721.567 702.353 730.194 701.96Z" fill="black"/>
<path d="M716.861 727.451C707.449 735.686 693.331 740.784 674.116 732.941C665.096 729.411 658.037 722.352 652.547 714.509C652.939 714.509 672.547 700.392 716.861 727.451Z" fill="white"/>
<path d="M737.645 700.784C737.645 700.784 721.175 709.804 678.822 682.745C628.234 650.196 638.43 718.431 674.116 732.941C711.371 748.235 730.586 714.902 730.194 702.353" stroke="black" stroke-width="3" stroke-miterlimit="10" stroke-linecap="round" stroke-linejoin="round"/>
<path d="M652.941 714.509C652.941 714.509 672.941 700.392 717.255 727.451" stroke="black" stroke-width="3" stroke-miterlimit="10" stroke-linecap="round" stroke-linejoin="round"/>
<path d="M680.39 487.843C689.018 489.02 695.685 480 692.547 471.373C690.979 466.667 688.234 462.353 683.92 459.608C670.587 451.373 620.783 450.589 594.508 469.412C570.979 486.667 641.175 482.353 680.39 487.843Z" fill="black"/>
<path d="M789.018 492.157C781.959 492.157 777.645 483.138 781.175 475.687C783.135 471.765 785.881 468.236 789.802 466.275C801.959 460.393 834.508 463.922 849.018 483.922C861.959 501.569 821.567 491.765 789.018 492.157Z" fill="black"/>
<path d="M665.881 538.432C645.881 529.804 623.136 532.157 602.351 536.863C599.998 537.647 598.43 534.51 600.391 532.941C618.43 518.04 652.547 516.079 667.057 536.471C668.234 537.255 667.449 538.824 665.881 538.432Z" fill="black"/>
<path d="M819.998 546.667C810.586 540.001 796.861 541.177 785.881 542.353C781.959 542.746 778.037 543.53 773.724 544.706C772.547 545.099 771.371 543.138 772.155 542.353L772.939 541.569C782.743 531.373 798.037 529.02 811.371 534.118C816.077 536.079 820.783 538.824 823.135 544.314C824.312 546.275 821.567 548.236 819.998 546.667Z" fill="black"/>
<path d="M871.372 237.256C777.254 210.589 767.058 259.216 672.941 207.452C578.823 155.295 408.235 190.197 376.47 311.373C376.47 311.373 323.921 343.53 320.392 454.51C318.039 529.02 356.862 597.256 382.352 633.726C399.607 661.961 417.647 682.746 428.235 701.569C445.098 731.765 453.333 764.706 453.333 764.706C457.254 727.059 466.274 692.55 460.784 677.255L447.843 672.942C349.803 635.295 367.451 525.883 415.294 519.608C465.49 513.334 481.176 558.04 483.921 569.02C490.588 560.785 488.235 536.079 486.666 506.667C565.098 545.491 643.529 457.255 669.803 389.02C702.353 304.706 774.117 370.589 774.117 370.589C774.117 370.589 845.098 503.53 920.392 444.314C987.058 390.981 973.725 265.883 871.372 237.256Z" fill="black"/>
<path d="M686.277 618.039C668.238 618.431 612.552 618.823 595.297 619.216C565.493 619.608 543.14 593.725 545.885 564.314C546.277 554.51 545.885 540.784 546.277 530.98C547.062 505.49 569.807 483.921 595.297 484.706L661.571 485.49C666.669 485.49 681.179 485.882 686.277 485.882C707.454 485.49 727.454 501.176 732.16 521.961C733.728 527.843 733.336 534.118 733.336 539.216V572.549C732.944 597.255 710.983 618.431 686.277 618.039ZM686.277 609.412C706.669 610.196 725.493 592.549 725.885 572.157C726.277 561.569 725.885 550.196 725.885 539.216C728.238 515.294 710.199 493.333 685.885 494.118C669.022 494.51 612.552 494.902 594.905 495.294C573.728 495.294 555.689 514.51 557.258 535.686C557.258 538.431 557.258 545.49 557.258 548.235C557.65 556.863 556.473 571.765 558.434 579.608C562.356 596.078 578.042 608.627 594.905 608.627H603.14C614.513 608.627 674.513 609.412 686.277 609.412Z" fill="black"/>
<path d="M844.315 496.079L813.335 496.471C804.707 496.863 794.511 495.294 787.06 500.392C780.001 505.098 776.864 513.726 777.256 521.961C777.256 532.157 777.256 542.745 776.864 552.941L776.472 551.373C781.962 570.589 789.413 589.02 800.786 605.098L796.864 602.745C800.001 603.53 805.492 603.53 808.629 603.53C820.393 603.922 834.119 604.706 845.884 604.706C856.864 604.706 867.452 596.471 869.805 585.49C870.59 582.353 870.59 576.863 870.59 573.726C870.59 556.863 870.982 540.392 870.197 523.53C870.982 508.628 859.609 495.294 844.315 496.079ZM844.315 484.314C865.099 484.314 879.609 504.314 876.08 523.922C875.295 540.785 875.688 557.255 875.688 574.118C877.648 593.726 865.884 611.373 845.492 612.941C836.864 613.334 828.629 613.334 820.393 613.726C816.08 613.726 805.491 614.51 801.57 614.51C799.609 614.902 796.472 614.51 794.511 614.51C792.943 614.51 791.374 613.334 790.59 612.157C778.433 594.118 769.805 574.118 764.707 553.334C764.707 540 763.531 526.667 764.707 513.334C767.06 497.647 781.178 484.314 797.256 483.922C808.237 483.53 833.335 484.314 844.315 484.314Z" fill="black"/>
<path d="M729.021 520.392C739.609 515.686 751.374 513.726 763.139 514.51C767.06 514.902 770.982 516.078 774.511 519.216L779.609 523.529C784.707 527.843 778.433 535.294 773.335 530.98C767.06 525.49 759.609 526.275 752.158 526.667C744.707 527.451 737.648 529.02 730.59 531.765C723.923 534.51 719.609 524.706 725.884 521.569C725.884 521.569 729.021 520.392 729.021 520.392Z" fill="black"/>
<path d="M552.55 534.51C549.805 540.784 546.668 541.569 541.57 541.176L530.197 541.569C507.452 541.569 484.315 541.177 461.57 537.647C453.727 537.255 453.335 526.275 461.178 525.882L552.158 522.745C554.903 522.745 556.864 525.49 555.688 527.843L552.55 534.51Z" fill="black"/>
</g>
</svg>
